<?xml version="1.0" encoding="UTF-8" standalone="no"?>
<!-- Created with Inkscape (http://www.inkscape.org/) -->

<svg
   width="71.883125mm"
   height="72.233772mm"
   viewBox="0 0 71.883125 72.233772"
   version="1.1"
   id="svg5"
   xml:space="preserve"
   inkscape:version="1.2 (dc2aedaf03, 2022-05-15)"
   sodipodi:docname="disegno-3.svg"
   xmlns:inkscape="http://www.inkscape.org/namespaces/inkscape"
   xmlns:sodipodi="http://sodipodi.sourceforge.net/DTD/sodipodi-0.dtd"
   xmlns="http://www.w3.org/2000/svg"
   xmlns:svg="http://www.w3.org/2000/svg"><sodipodi:namedview
     id="namedview7"
     pagecolor="#ffffff"
     bordercolor="#000000"
     borderopacity="0.25"
     inkscape:showpageshadow="2"
     inkscape:pageopacity="0.0"
     inkscape:pagecheckerboard="0"
     inkscape:deskcolor="#d1d1d1"
     inkscape:document-units="mm"
     showgrid="false"
     inkscape:zoom="0.75455247"
     inkscape:cx="-272.34687"
     inkscape:cy="332.64751"
     inkscape:window-width="1920"
     inkscape:window-height="1027"
     inkscape:window-x="-8"
     inkscape:window-y="-8"
     inkscape:window-maximized="1"
     inkscape:current-layer="layer3" /><defs
     id="defs2" /><g
     inkscape:groupmode="layer"
     id="layer3"
     inkscape:label="Livello 3"
     transform="translate(-111.50649,-99.584419)"><rect
       style="fill:#ffffff;fill-opacity:1;stroke:none;stroke-width:0.335605;stroke-dasharray:none;stroke-opacity:1"
       id="rect14969"
       width="71.883125"
       height="72.233772"
       x="111.50649"
       y="99.584419" /></g><g
     inkscape:groupmode="layer"
     id="layer2"
     inkscape:label="Livello 2"
     transform="translate(-111.50649,-99.584419)"><path
       style="fill:#6a4d20;fill-opacity:1;stroke-width:0.264583"
       d="m 143.06493,117.55519 c 0,0 2.62987,-4.20779 3.85715,-5.87337 1.22727,-1.66559 3.68181,-2.71754 4.12013,-3.94481 0.43831,-1.22727 0.26298,-2.10389 1.31493,-1.92857 1.05195,0.17533 2.19156,0.96429 1.49026,1.66558 -0.7013,0.7013 -3.68182,2.45455 -4.55844,3.68182 -0.87663,1.22728 -2.36688,3.15585 -2.54221,4.47078 -0.17532,1.31494 1.4026,2.89286 1.4026,2.89286 0,0 -1.49026,-0.96429 -2.89286,-0.96429 -1.4026,0 -2.19156,0 -2.19156,0 z"
       id="path4004" /><path
       style="fill:none;fill-opacity:1;stroke:#000000;stroke-width:0.365;stroke-dasharray:none;stroke-opacity:1"
       d="m 163.39676,148.27202 h 6.19867 v -0.12397"
       id="path13900" /><path
       style="fill:none;fill-opacity:1;stroke:#000000;stroke-width:0.365001;stroke-dasharray:none;stroke-opacity:1"
       d="m 152.70779,107.82467 0.35065,7.88961 h 4.55844"
       id="path14639" /><text
       xml:space="preserve"
       style="font-size:3.175px;fill:#000000;fill-opacity:1;stroke:none;stroke-width:0.365001;stroke-dasharray:none;stroke-opacity:1"
       x="158.14285"
       y="116.76623"
       id="text14695"><tspan
         sodipodi:role="line"
         id="tspan14693"
         style="fill:#000000;fill-opacity:1;stroke:none;stroke-width:0.365"
         x="158.14285"
         y="116.76623">Stem</tspan></text><text
       xml:space="preserve"
       style="font-size:3.175px;fill:#000000;fill-opacity:1;stroke:none;stroke-width:0.365001;stroke-dasharray:none;stroke-opacity:1"
       x="166.42372"
       y="134.22562"
       id="text14695-2"><tspan
         sodipodi:role="line"
         id="tspan14693-4"
         style="fill:#000000;fill-opacity:1;stroke:none;stroke-width:0.365"
         x="166.42372"
         y="134.22562">Seeds</tspan></text><text
       xml:space="preserve"
       style="font-size:3.175px;fill:#000000;fill-opacity:1;stroke:none;stroke-width:0.365001;stroke-dasharray:none;stroke-opacity:1"
       x="116.84384"
       y="149.33145"
       id="text14695-2-9"><tspan
         sodipodi:role="line"
         id="tspan14693-4-1"
         style="fill:#000000;fill-opacity:1;stroke:none;stroke-width:0.365"
         x="116.84384"
         y="149.33145">Flesh</tspan></text><text
       xml:space="preserve"
       style="font-size:3.175px;fill:#000000;fill-opacity:1;stroke:none;stroke-width:0.365001;stroke-dasharray:none;stroke-opacity:1"
       x="119.9867"
       y="127.59428"
       id="text14695-2-9-2"><tspan
         sodipodi:role="line"
         id="tspan14693-4-1-1"
         style="fill:#000000;fill-opacity:1;stroke:none;stroke-width:0.365"
         x="119.9867"
         y="127.59428">Core</tspan></text><text
       xml:space="preserve"
       style="font-size:3.175px;fill:#000000;fill-opacity:1;stroke:none;stroke-width:0.365001;stroke-dasharray:none;stroke-opacity:1"
       x="170.74129"
       y="149.12512"
       id="text14695-2-9-2-6"><tspan
         sodipodi:role="line"
         id="tspan14693-4-1-1-0"
         style="fill:#000000;fill-opacity:1;stroke:none;stroke-width:0.365"
         x="170.74129"
         y="149.12512">Peel</tspan></text></g><g
     inkscape:label="Livello 1"
     inkscape:groupmode="layer"
     id="layer1"
     transform="translate(-111.50649,-99.584419)"><path
       style="fill:#a4a417;fill-opacity:1;stroke-width:0.264583"
       d="m 145.2565,117.11688 c 6.0487,0 5.3474,9.20455 7.62662,12.53571 2.27922,3.33117 12.27272,10.16883 10.16883,20.86364 -2.1039,10.6948 -9.37987,12.53571 -9.37987,12.53571 0,0 -18.93507,5.25974 -23.66883,-8.85389 -4.73377,-14.11364 6.31168,-21.91559 7.71428,-26.56169 1.4026,-4.64611 2.36688,-10.43182 7.53897,-10.51948 z"
       id="path233" /><path
       style="fill:#f7f8ce;fill-opacity:1;stroke-width:0.264583"
       d="m 145.16883,117.5552 c 6.13637,0.17536 4.99396,9.4325 7.27598,12.44805 2.45455,3.24351 10.09298,8.58747 9.99351,17.18181 -0.0832,7.18819 -2.45456,16.21754 -15.69157,16.3052 -13.23702,0.0877 -17.58912,-8.58685 -17.4448,-16.12986 0.20799,-10.87133 7.62662,-15.69157 8.67857,-19.1104 1.05195,-3.41883 2.19156,-10.60713 7.18831,-10.6948 z"
       id="path2347"
       sodipodi:nodetypes="csssssc" /><path
       style="fill:#eabf45;fill-opacity:0.374532;stroke-width:0.264583"
       d="m 143.76624,123.25324 c 0,0 -1.05195,-0.35064 -0.87663,-1.92856 0.17533,-1.57793 1.13961,-2.1039 2.1039,-2.01624 0.96429,0.0877 2.01623,1.22727 1.57792,2.71753 -0.43831,1.49026 -1.31493,0.87663 -1.31493,2.1039 0,1.22727 0.61364,15.42857 0.61364,15.42857 3.17582,0.99469 5.36578,1.52688 5.61038,6.13637 0.26299,6.0487 -4.55844,7.62662 -4.55844,7.62662 0.0324,2.70306 1.66558,4.90909 1.31494,5.87338 -0.35065,0.96428 -1.57793,1.8409 -3.06818,1.66558 -1.49026,-0.17533 -2.98053,-1.49026 -2.8052,-2.45455 0.17532,-0.96428 1.92857,-3.59415 1.4026,-4.38311 -0.52598,-0.78897 -4.74555,-2.76672 -5.08442,-6.92532 -0.18367,-5.94697 4.89754,-6.54698 5.08442,-7.71429 0.17532,-1.57793 0,-16.12988 0,-16.12988 z"
       id="path3396"
       sodipodi:nodetypes="cscssccsssssccc" /><path
       style="fill:#dea535;fill-opacity:0.805243;stroke-width:0.264583"
       d="m 143.26217,150.14368 c 0.50406,0.0438 0.94237,-4.71185 0.94237,-5.15017 0,-0.43831 0.0438,-2.19156 -0.39448,-2.21347 -0.43831,-0.0219 -0.83279,3.35308 -0.83279,3.96672 0,0.61364 -0.19724,3.17776 0.2849,3.39692 z"
       id="path7000" /><path
       style="fill:#dea535;fill-opacity:1;stroke-width:0.264583"
       d="m 145.66975,143.61432 c 0.4164,-0.0877 0.9167,1.46725 0.89479,2.21238 -0.0219,0.74513 0.32121,3.47017 -0.2154,3.57333 -0.35495,0.0682 -0.35678,-2.21623 -0.48214,-3.33117 -0.0917,-0.81568 -0.50406,-2.34496 -0.19725,-2.45454 z"
       id="path8749"
       sodipodi:nodetypes="cssac" /><path
       style="fill:#0d0a06;fill-opacity:1;stroke-width:0.264583"
       d="m 143.20462,144.45985 c 0,0 0.27894,-1.56516 0.58887,-1.53417 0.30994,0.031 0.35643,1.33271 0.32543,1.70463 -0.031,0.37192 -0.13947,1.93708 -0.58887,1.72013 -0.44941,-0.21695 -0.41841,-1.64265 -0.32543,-1.89059 z"
       id="path8751" /><path
       style="fill:#0d0a06;fill-opacity:1;stroke-width:0.264583"
       d="m 145.73057,143.57653 c 0.35643,-0.0155 0.63537,0.97629 0.63537,1.25523 0,0.27894 0.20145,1.08477 -0.20146,1.05378 -0.40291,-0.031 -0.29444,-0.89881 -0.35642,-1.17775 -0.062,-0.27894 -0.37192,-1.03828 -0.0775,-1.13126 z"
       id="path9428" /><path
       style="fill:none;fill-opacity:1;stroke:#000000;stroke-width:0.365001;stroke-dasharray:none;stroke-opacity:1"
       d="m 147.15627,144.42885 h 7.68634 l 10.28978,-10.28978"
       id="path13902" /><path
       style="fill:none;fill-opacity:1;stroke:#000000;stroke-width:0.365001;stroke-dasharray:none;stroke-opacity:1"
       d="m 140.46171,142.94118 -9.4166,-16.31004 h -2.60881"
       id="path14633" /><path
       style="fill:none;fill-opacity:1;stroke:#000000;stroke-width:0.365001;stroke-dasharray:none;stroke-opacity:1"
       d="m 133.27126,148.396 h -7.31442"
       id="path14635" /></g></svg>
